<?xml version="1.0" standalone="no"?>
<!DOCTYPE svg PUBLIC "-//W3C//DTD SVG 20010904//EN"
 "http://www.w3.org/TR/2001/REC-SVG-20010904/DTD/svg10.dtd">
<svg version="1.0" xmlns="http://www.w3.org/2000/svg"
 width="16.000000pt" height="16.000000pt" viewBox="0 0 16.000000 16.000000"
 preserveAspectRatio="xMidYMid meet">
<metadata>
Created by potrace 1.11, written by Peter Selinger 2001-2013
</metadata>
<g transform="translate(0.000000,16.000000) scale(0.005000,-0.005000)"
fill="#000000" stroke="none">
<path d="M379 2825 c-1 0 -3 -242 -3 -537 -2 -423 1 -538 10 -538 7 0 46 11
86 25 142 49 126 45 273 74 55 11 131 21 169 23 l69 3 41 67 c77 125 157 198
281 258 108 52 170 65 302 64 106 -1 111 0 102 18 -5 10 -8 18 -5 18 3 0 -7
39 -21 88 -14 48 -25 95 -26 105 -1 9 -5 17 -9 17 -4 0 -7 3 -6 8 0 4 -2 16
-7 27 -43 109 -86 225 -83 227 1 2 -5 14 -15 28 l-17 25 -570 0 c-314 1 -571
1 -571 0z"/>
<path d="M1754 2800 c2 -14 10 -38 16 -55 6 -16 12 -32 12 -35 0 -3 6 -21 14
-40 14 -38 47 -170 59 -235 4 -22 9 -51 12 -65 3 -14 5 -56 6 -94 1 -65 2 -69
31 -87 17 -10 36 -23 43 -28 7 -6 16 -11 21 -11 15 0 127 -115 162 -164 85
-125 122 -258 115 -414 -4 -110 -9 -104 65 -87 14 3 36 7 50 10 33 6 148 40
181 53 15 6 30 8 33 5 3 -4 6 0 6 7 0 7 3 11 6 8 3 -4 37 7 76 23 39 16 77 29
84 29 8 0 14 4 14 8 0 4 15 12 33 17 l32 10 0 585 0 585 -538 0 -539 0 6 -25z"/>
<path d="M850 1708 c-19 -5 -43 -10 -52 -13 -10 -3 -26 -7 -35 -9 -10 -3 -43
-14 -75 -24 -31 -11 -59 -18 -62 -15 -3 4 -6 0 -6 -7 0 -7 -3 -11 -6 -7 -3 3
-32 -5 -63 -19 -31 -14 -58 -25 -61 -26 -6 -1 -36 -12 -80 -30 l-35 -15 1
-574 c1 -316 2 -579 3 -584 1 -7 186 -10 534 -10 l533 0 -31 90 c-29 82 -66
223 -80 300 -3 17 -8 78 -12 137 l-6 108 -61 34 c-103 58 -198 159 -254 271
-51 101 -66 168 -67 292 l0 113 -25 -2 c-14 -1 -41 -6 -60 -10z"/>
<path d="M2753 1414 c-35 -12 -63 -20 -63 -17 0 3 -6 1 -12 -5 -13 -10 -151
-46 -215 -57 -18 -3 -48 -8 -65 -11 -18 -3 -75 -7 -126 -9 -51 -1 -94 -4 -96
-6 -2 -2 -15 -24 -29 -49 -51 -87 -157 -186 -255 -235 -95 -48 -171 -67 -282
-71 -110 -4 -114 -6 -98 -52 4 -12 10 -35 13 -50 10 -45 10 -47 18 -59 5 -7 5
-18 2 -23 -3 -5 -2 -10 3 -10 5 0 9 -6 9 -13 0 -20 61 -185 110 -295 13 -29
23 -57 23 -62 0 -6 3 -11 8 -11 4 -1 259 -2 567 -3 l560 -1 0 527 c0 289 -2
529 -5 531 -3 3 -33 -6 -67 -19z"/>
</g>
</svg>
