<?xml version="1.0" standalone="no"?>
<!DOCTYPE svg PUBLIC "-//W3C//DTD SVG 20010904//EN"
 "http://www.w3.org/TR/2001/REC-SVG-20010904/DTD/svg10.dtd">
<svg version="1.0" xmlns="http://www.w3.org/2000/svg"
 width="16.000000pt" height="16.000000pt" viewBox="0 0 16.000000 16.000000"
 preserveAspectRatio="xMidYMid meet">
<metadata>
Created by potrace 1.11, written by Peter Selinger 2001-2013
</metadata>
<g transform="translate(0.000000,16.000000) scale(0.005000,-0.005000)"
fill="#000000" stroke="none">
<path d="M370 2292 c0 -296 3 -541 6 -545 4 -3 36 5 71 19 150 56 370 104 478
104 l60 0 30 58 c40 76 158 198 237 245 108 64 204 90 341 90 96 1 117 4 117
16 0 56 -121 416 -175 521 l-16 30 -574 0 -575 0 0 -538z"/>
<path d="M1740 2822 c0 -5 13 -45 30 -89 56 -154 100 -364 100 -475 l0 -53 58
-35 c143 -85 254 -235 297 -400 17 -66 24 -237 10 -279 -9 -29 17 -28 157 8
126 33 221 65 351 119 l87 36 0 588 0 588 -545 0 c-300 0 -545 -4 -545 -8z"/>
<path d="M785 1695 c-104 -27 -161 -47 -308 -105 l-107 -43 0 -588 0 -589 540
0 c297 0 540 2 540 3 0 2 -18 60 -41 128 -49 148 -77 284 -85 417 l-7 98 -56
29 c-84 44 -198 163 -248 260 -56 109 -74 186 -74 312 l0 103 -32 0 c-18 -1
-72 -12 -122 -25z"/>
<path d="M2695 1403 c-149 -51 -256 -73 -393 -80 l-123 -6 -35 -54 c-124 -194
-323 -304 -551 -305 -106 -1 -102 4 -78 -92 26 -100 54 -182 117 -343 l60
-153 569 0 569 0 0 535 c0 503 -1 535 -17 534 -10 -1 -63 -17 -118 -36z"/>
</g>
</svg>
