<?xml version="1.0" standalone="no"?>
<!DOCTYPE svg PUBLIC "-//W3C//DTD SVG 20010904//EN"
 "http://www.w3.org/TR/2001/REC-SVG-20010904/DTD/svg10.dtd">
<svg version="1.0" xmlns="http://www.w3.org/2000/svg"
 width="16.000000pt" height="16.000000pt" viewBox="0 0 16.000000 16.000000"
 preserveAspectRatio="xMidYMid meet">
<metadata>
Created by potrace 1.11, written by Peter Selinger 2001-2013
</metadata>
<g transform="translate(0.000000,16.000000) scale(0.005000,-0.005000)"
fill="#000000" stroke="none">
<path d="M381 2820 c-8 -6 -8 -1056 0 -1065 3 -3 55 11 114 31 59 19 116 37
126 40 11 2 29 6 42 10 143 35 246 43 410 33 31 -2 57 -6 57 -9 0 -3 8 -6 18
-6 74 -4 231 -73 352 -156 96 -66 93 -66 131 5 40 73 76 166 86 222 10 53 9
248 -1 305 -22 130 -106 403 -146 478 -5 9 -17 38 -27 64 -10 27 -25 48 -33
49 -49 4 -1123 3 -1129 -1z"/>
<path d="M1764 2822 l-21 -3 23 -57 c13 -31 24 -64 24 -72 0 -9 4 -20 9 -25
10 -12 28 -81 57 -225 15 -76 21 -248 11 -330 -12 -104 -64 -245 -123 -337
-19 -29 -34 -57 -34 -62 0 -5 -3 -11 -7 -13 -8 -3 -63 -84 -63 -92 0 -2 22
-15 48 -29 27 -14 64 -34 83 -44 33 -19 69 -31 159 -55 54 -14 250 -18 304 -6
21 5 50 10 65 12 14 2 46 9 71 16 25 7 52 14 60 15 54 12 166 51 172 59 4 6 8
8 8 4 0 -5 129 43 190 71 l25 12 0 574 c0 315 -4 577 -8 582 -7 7 -1005 12
-1053 5z"/>
<path d="M1008 1735 c-2 -2 -23 -6 -48 -9 -88 -11 -225 -47 -348 -92 -53 -19
-101 -37 -107 -38 -5 -2 -37 -15 -70 -30 l-60 -26 0 -583 0 -582 533 0 c292 0
532 3 532 6 0 3 -14 45 -30 95 -98 288 -117 516 -58 713 10 36 20 72 20 79 1
6 5 12 10 12 4 0 7 3 6 8 -3 11 64 144 85 166 9 11 17 26 17 33 0 7 4 13 8 13
5 0 15 12 23 28 8 15 20 33 27 41 11 12 10 17 -5 32 -15 15 -139 83 -153 84
-3 0 -9 3 -15 6 -9 5 -61 20 -75 21 -3 0 -16 5 -30 10 -22 9 -254 20 -262 13z"/>
<path d="M1557 1468 c-24 -51 -50 -119 -57 -152 -19 -82 -17 -306 2 -366 3 -8
11 -40 18 -70 26 -115 143 -441 171 -476 5 -6 6 -14 2 -17 -3 -4 0 -8 8 -8 47
-4 1119 -3 1120 1 1 3 2 240 3 528 1 360 -2 522 -10 522 -5 0 -57 -15 -115
-34 -166 -55 -296 -78 -444 -81 -71 -1 -136 3 -142 8 -7 5 -13 7 -13 4 0 -3
-33 3 -72 14 -99 27 -297 124 -328 160 -3 3 -26 18 -52 33 l-47 27 -44 -93z"/>
</g>
</svg>
