<?xml version="1.0" encoding="utf-8"?>
<!-- Generator: Adobe Illustrator 18.0.0, SVG Export Plug-In . SVG Version: 6.00 Build 0)  -->
<!DOCTYPE svg PUBLIC "-//W3C//DTD SVG 1.1//EN" "http://www.w3.org/Graphics/SVG/1.1/DTD/svg11.dtd">
<svg version="1.1" id="Objec_1_" xmlns="http://www.w3.org/2000/svg" xmlns:xlink="http://www.w3.org/1999/xlink" x="0px" y="0px"
	 width="720px" height="522.7px" preserveAspectRatio="none" viewBox="0 0 720 522.7" enable-background="new 0 0 720 522.7" xml:space="preserve">
<g>
	<path fill="#FDFDFD" d="M242.4,0.5c159.3,0,318.6,0,478.1,0c0,174.1,0,348.2,0,522.2c-0.4,0.4-1,0.5-1.5,0.5
		c-6.1-0.5-12-2.1-17.9-3.4c-17.8-3.7-35.6-7.4-53.3-11.1c-43-9-86-17.9-129-26.9c-21.1-4.4-42.1-8.8-63.2-13.2
		c-43.3-9-86.6-18.1-129.9-27.1c-25.9-5.4-51.8-10.9-77.8-16.1c-0.7-0.1-1.4-0.4-2.1-0.2c-0.3,0-0.5,0-0.8-0.1
		c-0.2-0.1-0.5-0.2-0.7-0.3c-0.1-0.1-0.2-0.1-0.3-0.2c-0.2-0.1-0.4-0.3-0.6-0.4c-8.3-9.3-16.3-18.9-24.4-28.3
		c-7.4-8.5-14.7-17.1-22-25.6c-8.4-9.7-16.6-19.4-25-29.1c-7.5-8.7-14.9-17.5-22.5-26.1c-4.1-4.7-8.1-9.5-12.2-14.2
		c-0.7-0.8-1.3-1.6-1.4-2.7c1.6-5.7,4-11.1,6-16.7c11.4-30.6,23-61.1,34.5-91.6c9.5-25.2,18.9-50.5,28.5-75.7
		c2.4-6.4,4.7-12.7,7.2-19.1c0.2-0.3,0.3-0.7,0.5-1c0.1-0.2,0.2-0.4,0.3-0.7c1.7-2.6,4.1-4.7,6.4-6.8c7.1-6.5,14.1-13.2,21.2-19.8
		c11-10.1,21.8-20.4,32.8-30.5c5.9-5.5,11.8-11,17.7-16.5c6-5.7,12.1-11.4,18.2-17c0.3-0.3,0.6-0.5,0.7-1.1
		c-0.8-0.5-1.8-0.3-2.7-0.3c-20.5,0-41.1,0-61.6,0C244.5,1.6,243,2.2,242.4,0.5z"/>
	<path fill="#4A2216" d="M136.3,298.7c5.4,6.4,10.9,12.8,16.3,19.1c30,34.9,60,69.8,90,104.7c0.4,0.5,0.9,0.9,1.3,1.4
		c0.1,0.1,0.2,0.2,0.3,0.3l0.1,0.1c0.1,0.2,0.3,0.3,0.4,0.4l0.1,0c0.2,0.3,0.6,0.4,0.8,0.5c8.4,9.4,16.4,19.1,24.7,28.6
		c7.6,8.7,15.1,17.6,22.7,26.3c7.1,8.2,14.1,16.5,21.2,24.7c4.6,5.3,9.2,10.7,13.7,16c1.4,1.6,1.4,2-0.3,2.5
		c-108.1,0-216.1,0-324.2,0c-1,0-2.1,0.2-3.1-0.2c0-15.4,0-30.7,0-46.1c4.6-6.8,9.6-13.3,14.6-19.9c17.4-23.3,34.8-46.7,52.2-70.1
		c15.2-20.4,30.4-40.8,45.5-61.2c6.5-8.8,13.2-17.5,19.6-26.4c0.6-0.9,1.2-2,2.4-2.2C135.7,297.3,136,298,136.3,298.7z"/>
	<path fill="#D8AF9D" d="M136.3,298.7c-0.4-0.4-0.9-0.7-1.3-1.1c-0.3-0.2-0.7-0.2-0.9-0.4c-0.5-0.3-0.8-0.7-1.2-1.1
		c-21-21.1-42.4-42-63.6-63c-16.6-16.5-33.1-33.1-49.9-49.5c-6.3-6.1-12.6-12.3-18.8-18.5c0-0.2,0-0.3,0-0.5
		c0.4-0.5,0.9-0.9,1.5-1.1c1.1-0.4,2.3-0.8,3.4-1.2c28.3-9.3,56.4-18.9,84.6-28.4c32.2-10.8,64.4-21.7,96.6-32.5
		c7.4-2.5,14.7-5,22-7.5c1-0.3,1.9-0.7,3-0.8c0.3,0,0.5,0,0.7,0.1c0.2,0.1,0.4,0.2,0.6,0.4c0,0.1,0.1,0.2,0.1,0.3
		c0,0.2-0.1,0.3-0.1,0.5c-0.1,0.2-0.3,0.4-0.4,0.6c-3.2,8.5-6.3,17.1-9.5,25.6c-3.7,9.8-7.4,19.6-11,29.4c-4.9,13-9.8,26-14.7,39
		c-4.4,11.7-8.8,23.3-13.2,35c-4.9,13-9.8,26-14.7,39c-4,10.6-8,21.2-11.9,31.8C137.2,296.1,136.7,297.4,136.3,298.7z"/>
	<path fill="#FFFFFF" d="M1.9,164.1c-0.5,0.2-0.9,0.3-1.4,0.5c0-54.7,0-109.4,0-164.2c72.8,0,145.6,0,218.4,0
		c0.4,0.4,0.4,0.8,0.3,1.3c-0.4,1-1.4,1.5-2.2,2.1c-14.3,10.7-28.6,21.3-42.9,32C147.3,56,120.4,76.1,93.6,96.1
		c-24,17.9-48.1,35.9-72.1,53.8c-5.4,4-10.8,8-16.2,12C4.3,162.8,3,163.3,1.9,164.1z"/>
	<path fill="#7C3525" d="M134.4,297.1c0.2,0.2,0.3,0.3,0.5,0.5c-1.9,1.3-2.9,3.4-4.2,5.1c-5,6.5-9.8,13.1-14.7,19.7
		c-5.8,7.8-11.5,15.6-17.3,23.4c-4.5,6-9,11.9-13.5,18c-5.7,7.7-11.4,15.5-17.2,23.2c-4.4,5.9-8.9,11.8-13.3,17.8
		c-5.8,7.8-11.6,15.6-17.4,23.4c-7.8,10.5-15.6,20.9-23.4,31.4c-3.9,5.2-7.7,10.3-11.5,15.5c-0.6,0.8-1.1,1.6-2,2
		c0-56.6,0-113.3,0-169.9c1.5-1.1,3.4-1,5.1-1.1c7.6-0.4,15.1-1.1,22.7-1.7c7.2-0.5,14.5-1.1,21.7-1.7c7.4-0.5,14.8-1.2,22.2-1.6
		c7.2-0.5,14.3-1.1,21.5-1.6c7.4-0.6,14.8-1.2,22.2-1.7c5.3-0.4,10.5-0.9,15.8-1.1C132.6,296.7,133.6,296.6,134.4,297.1z"/>
	<path fill="#AF6251" d="M134.4,297.1c-4.3,0.5-8.7,0.7-13.1,1.1c-6.4,0.5-12.8,1-19.3,1.4c-4.4,0.3-8.7,0.5-13.1,1
		c-4.9,0.5-9.8,0.8-14.7,1.2c-3.2,0.3-6.5,0.4-9.8,0.7c-3,0.2-6,0.2-9,0.7c-2.4,0.4-4.9,0.3-7.4,0.5c-3.2,0.2-6.4,0.5-9.5,0.7
		c-2.8,0.2-5.7,0.3-8.6,0.7c-3,0.3-6,0.6-9,0.6c-2.9,0.1-5.7,0.4-8.6,0.6c-4,0.3-7.9,0.6-11.9,0.8c0-47.4,0-94.7,0-142.1
		c1.1-0.1,1.5,0.8,2.1,1.4c3.4,3.3,6.6,6.7,10,10c16.5,15.9,32.4,32.3,48.8,48.2c15.1,14.7,29.8,29.9,45,44.5
		c8.8,8.6,17.5,17.3,26.3,25.9C133.3,295.8,133.8,296.4,134.4,297.1z"/>
	<path fill="#F3F3E7" d="M218.9,1.9c0-0.5,0-1,0-1.5c7.8,0,15.7,0,23.5,0c0.8,0.8,1.8,0.5,2.7,0.5c21.1,0,42.2,0,63.4,0
		c0.9,0,1.9-0.2,2.9,0.3c-0.1,1.1-0.9,1.7-1.6,2.1c-1.8,1.2-3.1,2.8-4.6,4.2c-5.7,5.4-11.6,10.7-17.3,16.2c-2.1,2-4.2,4.1-6.4,6.1
		c-5.3,4.7-10.4,9.7-15.6,14.5c-4.6,4.4-9.4,8.7-14,13.1c-5.1,4.8-10.1,9.5-15.2,14.2c-2.5,2.3-4.8,4.7-7.3,6.9
		c-4.7,4.2-9.3,8.5-13.8,12.9c-0.9,0.8-1.6,1.8-2.4,2.6c0,0-0.1,0.1-0.1,0.1c-0.1-0.2-0.3-0.3-0.5-0.5l0,0c-0.8-0.9-0.8-1.9-0.7-3
		c0.7-8.1,1.1-16.2,1.7-24.4c0.5-7.6,1-15.1,1.6-22.7c0.8-10.7,1.3-21.4,2.3-32c0.1-1.4,0.1-2.9,0.1-4.3
		C217.7,5.4,217.9,3.6,218.9,1.9z"/>
	<path fill="#C2B5B1" d="M0.5,523.2c108.4,0,216.8,0,325.2,0c1,0,2.1,0,3.1,0c0.2-0.1,0.4-0.1,0.5,0c0.1,0.2,0.1,0.4-0.1,0.5
		c-108.9,0-217.8,0-326.6,0C1.9,523.7,1,524.2,0.5,523.2z"/>
	<path fill="#E3F1F1" d="M719,522.7c0.5,0,1,0,1.5,0c-0.2,0.3,0.5,1-0.5,1c-0.6,0-1.1,0-1.7,0c-83.4,0-166.9,0-250.3,0
		c-0.1-0.3,0-0.6,0.3-0.8c1.1-0.6,2.3-0.5,3.5-0.5c79.6,0,159.2,0,238.9,0C713.5,522.4,716.2,523.2,719,522.7z"/>
	<path fill="#C9DADD" d="M468,523.2c0,0.1,0,0.3,0,0.4c-46.2,0-92.5,0-138.7,0c0-0.1,0-0.3,0-0.4c1.2-1.2,2.7-0.8,4.1-0.8
		c20.1,0,40.1,0,60.2,0c22.7,0,45.4,0,68.1,0c1.8,0,3.7,0,5.5,0.3C467.6,522.8,467.8,523,468,523.2z"/>
	<path fill="#ABD7D5" d="M468,523.2c-0.2,0-0.4-0.1-0.6-0.1c-7.1-2.1-13.6-5.6-20.3-8.6c-27.2-11.9-54.3-23.9-81.4-35.9
		c-25.4-11.2-50.7-22.5-76.1-33.5c-10.2-4.4-20.4-8.9-30.5-13.4c-0.7-0.3-1.4-0.5-1.8-1.1c-0.2-1.3-1.3-0.7-2-1
		c-0.5-0.1-1.1-0.2-1.4-0.7c-1-1.3-2.4-1.6-4-1.6c-1.7-0.4-3.2-1.2-4.6-2.2c-0.1-0.2-0.3-0.3-0.4-0.5c1.5-0.8,3-0.1,4.4,0.2
		c13.8,2.8,27.6,5.7,41.4,8.6c12.5,2.6,25.1,5.4,37.6,8c13.6,2.8,27.1,5.5,40.7,8.4c16.4,3.4,32.7,6.9,49.1,10.4
		c14.3,3,28.7,5.9,43,8.8c13.3,2.8,26.6,5.7,40,8.4c16.6,3.5,33.2,6.8,49.8,10.3c13.3,2.8,26.6,5.7,40,8.4
		c17.4,3.6,34.8,7.1,52.2,10.8c12.5,2.6,25.1,5.3,37.6,8c12.4,2.6,24.8,5.2,37.2,7.7c0.4,0.1,0.8,0.1,1.2,0.1c-0.9,0.8-2,0.4-3,0.4
		c-34.4,0-68.7,0-103.1,0c-47.2,0-94.5,0-141.7,0C470.1,523.2,469.1,523.2,468,523.2z"/>
	<path fill="#ABD7D5" d="M244.8,424.7c-0.3,0-0.4-0.1-0.4-0.4C244.7,424.3,244.8,424.5,244.8,424.7z"/>
	<path fill="#ABD7D5" d="M244.3,424.3c-0.2,0-0.4-0.1-0.3-0.3C244.1,423.9,244.3,424,244.3,424.3z"/>
	<path fill="#E1E0C9" d="M212.7,95.1c0-0.3,0.1-0.4,0.4-0.6C213,94.7,212.8,94.9,212.7,95.1z"/>
	<path fill="#5F909B" d="M245.3,425.3c1.7,0.2,3.2,1.3,4.8,1.8c1.5-0.2,2.6,0.9,3.8,1.6c0.3,0.4,0.8,0.5,1.3,0.5
		c0.7,0.3,1.5,0.3,2.1,1c2.9,1.7,6.1,2.8,9.1,4.2c7.5,3.3,15.1,6.6,22.6,9.9c8.3,3.6,16.7,7.3,25,10.9c7.4,3.2,14.7,6.5,22.1,9.8
		c9,4,18,7.9,27,11.9c7.5,3.3,15,6.7,22.6,10c8.8,3.9,17.6,7.7,26.3,11.6c7.5,3.3,14.9,6.6,22.3,9.9c10.3,4.5,20.6,9.1,30.9,13.6
		c0.8,0.3,1.7,0.5,2.3,1.3c-1.1,0-2.2,0-3.4,0c-43.9,0-87.8,0-131.7,0c-1,0-2.1,0-3.1,0.1c-0.2,0-0.3-0.1-0.5-0.1
		c-0.6-1.7-2.1-2.8-3.2-4.1c-6.2-7.3-12.5-14.6-18.7-21.8c-7.5-8.7-15-17.5-22.5-26.2c-6.3-7.3-12.6-14.7-18.9-22
		s-12.6-14.7-18.9-22C246.1,426.5,245.5,426,245.3,425.3z"/>
	<path fill="#E1E0C9" d="M218.9,1.9c-0.6,3.8-0.4,7.6-0.9,11.4c-0.3,2.5-0.4,5.1-0.5,7.6c-0.2,4.2-0.4,8.4-1,12.6
		c-0.1,0.4,0,0.8,0,1.2c0,4.3-0.4,8.6-0.9,12.8c-0.1,0.6,0,1.1,0,1.7c0,4.1-0.4,8.1-0.9,12.1c-0.3,2.4-0.3,4.8-0.4,7.1
		c-0.1,3.6-0.3,7.2-0.7,10.7c-0.4,3.5,0,7-0.8,10.4c-0.3,1.3-0.1,2.7-0.1,4.1c-0.9-0.1-1.7,0.3-2.5,0.6
		c-22.2,7.4-44.3,14.9-66.4,22.4c-15.3,5.2-30.7,10.2-46,15.5c-16.1,5.5-32.2,10.7-48.3,16.3c-15.4,5.3-30.9,10.3-46.3,15.5
		c-0.4,0.1-0.8,0.2-1.2,0.3c2.1-2.3,4.7-3.8,7.1-5.6c11.8-8.9,23.6-17.7,35.4-26.5c10.3-7.7,20.6-15.3,30.8-23
		c11.2-8.3,22.3-16.7,33.5-25c10.9-8.1,21.8-16.3,32.7-24.4c7.3-5.5,14.7-11,22-16.4c9.2-6.9,18.4-13.7,27.6-20.6
		c8.6-6.4,17.1-12.8,25.7-19.2C217.4,2.9,218.2,2.4,218.9,1.9z"/>
	<path fill="#E1E0C9" d="M212.6,93.6c0.2,0.1,0.4,0.2,0.5,0.5C212.9,93.9,212.8,93.8,212.6,93.6z"/>
	<path fill="#C9DDDF" d="M253.9,428.7c-1.3-0.5-2.5-1.1-3.8-1.6C251.6,426.8,253,427.4,253.9,428.7z"/>
	<path fill="#C6DDDF" d="M257.2,430.1c-0.8-0.2-1.5-0.5-2.1-1c0.7-0.1,1.4,0,2.1,0.4C257.5,429.7,257.4,429.9,257.2,430.1z"/>
</g>
</svg>
