<?xml version="1.0" encoding="utf-8"?>
<!-- Generator: Adobe Illustrator 18.0.0, SVG Export Plug-In . SVG Version: 6.00 Build 0)  -->
<!DOCTYPE svg PUBLIC "-//W3C//DTD SVG 1.1//EN" "http://www.w3.org/Graphics/SVG/1.1/DTD/svg11.dtd">
<svg version="1.1" id="レイヤー_1" xmlns="http://www.w3.org/2000/svg" xmlns:xlink="http://www.w3.org/1999/xlink" x="0px"
	 y="0px" width="415.6px" height="478.1px" viewBox="0 0 415.6 478.1" enable-background="new 0 0 415.6 478.1"
	 xml:space="preserve">
<g>
	<path fill="#EA9F68" d="M204.6,478.1c-6.8-3.9-13.7-7.9-20.5-11.8c-37.4-21.5-74.8-43.1-112.2-64.6c-23.3-13.4-46.5-26.8-69.8-40.2
		c-1.7-1-2.2-2.1-2.2-4C0,280.2,0,203,0,125.7c0-3.7,1.2-2.9,3.4-1.7c31.3,18.1,62.7,36.2,94.1,54.3c34.8,20.1,69.5,40.2,104.4,60.2
		c2.7,1.6,3.6,3.1,3.6,6.3c-0.2,34.4-0.1,68.8-0.2,103.2c0,42.1,0,84.2-0.1,126.3C205.2,475.4,205.6,476.7,204.6,478.1z"/>
	<path fill="#ECC580" d="M413.3,118.2c-9.6,5.5-18.8,10.9-28,16.2c-51,29.4-101.9,58.8-152.8,88.3c-7.9,4.6-16,8.7-23.5,13.9
		c-1.2,0.8-1.8-0.1-2.5-0.5c-18.1-10.4-36.1-20.8-54.2-31.3c-25.8-14.9-51.7-29.8-77.5-44.8c-23.4-13.5-46.7-27-70.1-40.5
		c-0.3-0.2-0.6-0.4-1.3-0.8c9.4-5.5,18.4-10.7,27.4-15.9c27-15.6,54-31.1,81-46.7c27.5-15.9,55-31.8,82.5-47.7
		c4.6-2.6,9.1-5.3,13.5-8.1c1.6-1,2.5,0.2,3.4,0.8c13.2,7.5,26.4,15.2,39.6,22.8c28.7,16.5,57.3,33.1,86,49.6
		c25.1,14.5,50.3,29,75.4,43.5C412.4,117.2,412.6,117.5,413.3,118.2z"/>
	<path fill="#DD7763" d="M415.6,242.7c0,37.8-0.1,75.6,0.2,113.4c0,3.7-1.6,4.1-3.9,5.4c-12.1,6.8-24.1,13.9-36.2,20.8
		c-54.2,31.3-108.4,62.6-162.5,94c-3.8,2.2-2.9-0.4-2.9-2.3c0-66.1,0-132.2,0-198.3c0-10.8,0-21.6,0-32.4c0-1.7-0.2-2.7,2.2-2.8
		c1.6,0,3.2-1.5,4.7-2.4c65.3-37.7,130.6-75.5,195.9-113.2c2.1-1.2,2.8-1.2,2.8,1.5c-0.1,24-0.1,47.9-0.2,71.9c0,14.8,0,29.7,0,44.5
		C415.7,242.7,415.7,242.7,415.6,242.7z"/>
</g>
</svg>
