<?xml version="1.0" encoding="utf-8"?>
<!-- Generator: Adobe Illustrator 18.0.0, SVG Export Plug-In . SVG Version: 6.00 Build 0)  -->
<!DOCTYPE svg PUBLIC "-//W3C//DTD SVG 1.1//EN" "http://www.w3.org/Graphics/SVG/1.1/DTD/svg11.dtd">
<svg version="1.1" id="レイヤー_1" xmlns="http://www.w3.org/2000/svg" xmlns:xlink="http://www.w3.org/1999/xlink" x="0px"
	 y="0px" width="510.2px" height="528.6px" viewBox="0 0 510.2 528.6" enable-background="new 0 0 510.2 528.6"
	 xml:space="preserve">
<g>
	<path fill="#9BC1C3" d="M377.3,380.7c1.3-0.1,2.1-1.2,3-1.9c6.8-6,13.2-12.3,19-19.2c6.7-8,12.6-16.5,17.5-25.7
		c0.6-1.1,1.1-1.3,2.2-0.8c4.8,2.2,9.6,4.4,14.4,6.5c12.4,5.6,24.7,11.3,37.1,16.9c8.3,3.8,16.6,7.6,24.8,11.4
		c4.4,2,8.9,4.1,13.3,6.1c1.8,0.8,1.9,0.8,1,2.6c-4,8.4-8.4,16.5-13.3,24.4c-6.9,11.3-14.7,21.9-23.1,32.1c-2.8,3.4-5.8,6.6-8.8,9.8
		c-4.4,4.7-9,9.3-13.7,13.8c-7.6,7-15.5,13.6-23.8,19.7c-12.6,9.3-26,17.5-40.1,24.4c-15.4,7.6-31.5,13.7-48.1,18.3
		c-11,3-22.2,5.3-33.5,6.9c-5.1,0.8-10.3,1.2-15.5,1.7c-10.8,1.1-21.7,1-32.6,0.8c-5.8-0.1-11.6-0.6-17.4-1.2
		c-5.2-0.5-10.3-1.2-15.4-2c-10.2-1.6-20.2-3.8-30.1-6.5c-12.9-3.6-25.4-8.1-37.6-13.6c-11.8-5.3-23.1-11.4-33.9-18.3
		c-9.1-5.7-17.7-12-26-18.8c-5-4.1-9.9-8.4-14.6-12.8c-3.6-3.4-7.1-6.9-10.5-10.5c-8.8-9.3-16.9-19.2-24.3-29.6
		c-8.6-12.2-16.1-25-22.5-38.4c-7.7-16.3-13.7-33.2-18-50.7c-1.9-7.8-3.4-15.7-4.6-23.7c-0.7-5-1.2-10-1.7-15
		c-1.1-10.7-1-21.4-0.8-32.1c0.1-6.1,0.7-12.3,1.3-18.4c1.3-13.4,3.8-26.7,7.3-39.7c3.4-12.8,7.7-25.2,13-37.3
		c6.7-15.4,14.8-29.9,24.3-43.7c5.6-8.2,11.7-15.9,18.2-23.5C70.6,85,77.5,78,84.8,71.2c8.4-7.8,17.4-15,26.8-21.7
		c12.7-9,26-16.8,40.1-23.5c12.4-5.9,25.1-10.7,38.2-14.7c8.4-2.5,16.9-4.6,25.5-6.3c6.8-1.3,13.7-2.4,20.6-3.1
		c6.5-0.7,13-1.1,19.6-1.5c6.9-0.4,13.8-0.5,20.6-0.2c7.5,0.3,15,0.8,22.4,1.7c12.5,1.5,24.7,3.7,36.9,6.8
		c13.4,3.5,26.4,8,39.1,13.5c16.1,6.9,31.3,15.4,45.7,25.3c8.2,5.6,16,11.7,23.5,18.2c7.3,6.3,14.3,13.1,20.9,20.1
		c10.7,11.4,20.2,23.7,28.7,36.8c0.1,0.2,0.2,0.4,0.4,0.6c0.8,1.4,0.8,1.5-0.6,2.4c-4.3,2.7-8.7,5.4-13.1,8
		c-11.3,6.9-22.6,13.9-33.9,20.9c-11.6,7.2-23.3,14.3-34.9,21.5c-5.1,3.1-10.2,6.3-15.3,9.4c-1.4,0.9-1.5,0.9-2.3-0.6
		c-2-3.7-4-7.5-5.9-11.2c-2.9-5.6-5.8-11.2-8.7-16.8c-0.6-1.2-1.4-2.3-2.4-3.3c-8.3-8.5-17.2-16.3-27-22.9
		c-11.7-8-24.4-13.9-38.1-17.6c-7.3-2-14.8-3.4-22.3-4.3c-10.9-1.3-21.9-1.5-32.8-0.9c-17.5,0.9-34.5,4.4-50.9,10.5
		c-14.7,5.4-28.5,12.6-41.2,21.7c-8.7,6.3-16.8,13.2-24.2,21.1c-8.4,9-15.7,18.7-21.8,29.4c-5.3,9.3-9.6,18.9-12.8,29.1
		c-2.6,8.4-4.6,16.9-5.6,25.7c-0.4,3.7-1,7.4-0.9,11.2c-0.4,3.6-0.1,7.1,0.2,10.7c0.8,8.7,1.4,17.3,3.2,25.9
		c4.3,20.7,12.8,39.6,25.1,56.8c7.5,10.5,16.1,20,26.1,28.3c11.9,10.4,25.1,18.6,39.4,25.2c12,5.6,24.6,9.5,37.5,12.2
		c6.9,1.4,13.8,2.4,20.9,3c4.8,0.4,9.6,0.5,14.3,0.7c6.3,0.1,12.6-0.3,18.9-0.9c13.4-1.3,26.5-4.1,39.3-8.4
		c18.8-6.3,36-15.6,51.6-27.9C375.9,381.5,376.5,380.9,377.3,380.7z"/>
	<path fill="#C5F4FF" d="M153.1,378.3c-2-0.9-3.4-2.6-5-4c-6.9-6.4-13.3-13.3-19-20.9c-7.3-9.8-13.5-20.3-18.4-31.6
		c-3.7-8.6-6.6-17.5-8.6-26.6c-1.3-5.7-2.2-11.5-2.7-17.4c-0.5-6.4-1-12.7-0.9-19.1c0-0.8-0.2-1.6,0.4-2.3c0,2.2,0,4.5,0,6.7
		c0,1.9,0.1,1.9,1.9,1.9c3.4,0,6.7,0,10.1,0c8.8,0,17.6,0.2,26.4,0c42-0.9,83.9-0.2,125.9-0.4c0.8,0,1.6,0,2.4,0
		c0.1,0.2,0.1,0.4,0.1,0.7c-0.4,0.7-1,1.2-1.6,1.8c-1.6,1.6-3.2,3.2-4.7,4.8c-26.7,26.5-52.8,53.4-79.4,80
		c-8.2,8.2-16.3,16.4-24.4,24.7C154.8,377.2,154.2,378.1,153.1,378.3z"/>
	<path fill="#5D94A0" d="M265.5,264.9c0-0.1,0.1-0.3,0.1-0.4c2.8,2.3,5.1,5,7.6,7.6c7.1,7.4,14.2,14.8,21.3,22.2
		c15.3,16,30.7,32,46,48c10.8,11.3,21.6,22.5,32.4,33.8c1.5,1.6,3,3.1,4.5,4.7c-0.9,1.6-2.5,2.5-3.9,3.5
		c-9.4,7.2-19.5,13.4-30.2,18.5c-13,6.2-26.6,10.7-40.8,13.5c-4.4,0.9-8.8,1.7-13.2,2.2c-4.3,0.5-8.7,1.1-13.1,1.1
		c-2.1,0-4.1-0.1-6.2,0.3c-1.4,0.3-3,0.4-4.5-0.3c-1.2-1.2-0.8-2.7-0.8-4.1c0-16,0-32,0-48c0-32.6,0-65.3,0-97.9
		C264.7,268,264.6,266.4,265.5,264.9z"/>
	<path fill="#4FD9F7" d="M265.5,264.9c0,1,0.1,2.1,0.1,3.1c0,49.5,0,98.9,0,148.4c0,1,0,2.1,0,3.1c-0.9,0.7-2,0.5-3,0.3
		c-1-0.2-2.1-0.3-3.1-0.3c-6.7,0-13.3-0.9-20-1.8c-10.9-1.6-21.6-4.2-32-7.9c-10.3-3.6-20.1-8.1-29.5-13.6
		c-5.9-3.4-11.6-7.1-17-11.2c-2.5-1.9-4.9-3.9-7.3-5.8c-0.3-0.3-0.5-0.6-0.6-1c4.8-4.8,9.6-9.6,14.3-14.5c18.5-19,37.4-37.6,56-56.6
		c13.3-13.6,26.8-27,40.2-40.5C264.1,266.1,264.7,265.4,265.5,264.9z"/>
</g>
</svg>
