<?xml version="1.0" encoding="utf-8"?>
<!-- Generator: Adobe Illustrator 18.0.0, SVG Export Plug-In . SVG Version: 6.00 Build 0)  -->
<!DOCTYPE svg PUBLIC "-//W3C//DTD SVG 1.1//EN" "http://www.w3.org/Graphics/SVG/1.1/DTD/svg11.dtd">
<svg version="1.1" id="レイヤー_1" xmlns="http://www.w3.org/2000/svg" xmlns:xlink="http://www.w3.org/1999/xlink" x="0px"
	 y="0px" width="740.1px" height="740.1px" viewBox="0 0 740.1 740.1" enable-background="new 0 0 740.1 740.1"
	 xml:space="preserve">
<g>
	<path fill="#FEBD3A" d="M600,670.1c0-21.8,0.1-43.6-0.1-65.4c0-3.8,1-4.7,4.7-4.7c43.6,0.1,87.3,0.1,130.9,0c3.4,0,4.6,0.7,4.5,4.3
		c-0.1,43.8-0.1,87.6,0,131.4c0,3.5-1,4.4-4.5,4.4c-43.8-0.1-87.6-0.1-131.4,0c-3.7,0-4.3-1.3-4.3-4.6
		C600.1,713.7,600,691.9,600,670.1z"/>
	<path fill="#FE8E3A" d="M470.5,600.1c21.5,0,43,0.1,64.5-0.1c3.6,0,5.2,0.5,5.1,4.7c-0.2,43.6-0.1,87.3,0,130.9
		c0,3.4-0.8,4.5-4.4,4.5c-43.8-0.1-87.6-0.1-131.4,0c-3.6,0-4.4-1.1-4.4-4.5c0.1-43.6,0.1-87.3,0-130.9c0-3.6,0.8-4.8,4.6-4.8
		C426.6,600.2,448.6,600.1,470.5,600.1z"/>
	<path fill="#F05D38" d="M269.8,740c-21.7,0-43.3-0.1-65,0.1c-4.1,0-4.9-1.2-4.9-5c0.1-43.5,0.1-87,0-130.4c0-3.6,0.7-4.8,4.6-4.7
		c43.6,0.2,87.3,0.2,130.9,0c3.8,0,4.6,1.1,4.6,4.7c-0.1,43.5-0.1,87,0,130.4c0,3.8-0.8,5-4.8,5C313.5,739.9,291.6,740,269.8,740z"
		/>
	<path fill="#9C292D" d="M69.6,740c-21.6,0-43.3-0.1-64.9,0.1c-3.8,0-4.6-1-4.6-4.7c0.1-43.6,0.1-87.3,0-130.9c0-3.8,1-4.6,4.7-4.6
		c43.6,0.1,87.3,0.1,130.9,0c3.8,0,4.6,1,4.6,4.7c-0.1,43.6-0.1,87.3,0,130.9c0,3.8-1,4.6-4.7,4.6C113.5,739.9,91.5,740,69.6,740z"
		/>
	<path fill="#FEC756" d="M670.5,400.1c21.5,0,43,0.1,64.5-0.1c3.7,0,5.1,0.7,5.1,4.8c-0.2,43.5-0.2,87,0,130.5
		c0,4.2-1.4,4.8-5.1,4.8c-43.3-0.1-86.6-0.1-130,0c-4.4,0-5.1-1.4-5.1-5.4c0.1-43.2,0.2-86.3,0-129.5c0-4.7,1.5-5.4,5.6-5.3
		C627.2,400.2,648.9,400.1,670.5,400.1z"/>
	<path fill="#FE9E56" d="M540,470.6c0,21.5-0.1,43,0.1,64.5c0,3.7-0.7,5.1-4.8,5.1c-43.5-0.2-87-0.2-130.5,0c-4.2,0-4.8-1.4-4.8-5.1
		c0.1-43.3,0.1-86.7,0-130c0-4.4,1.4-5.1,5.4-5.1c43.2,0.1,86.3,0.2,129.5,0c4.7,0,5.4,1.5,5.3,5.6C539.9,427.2,540,448.9,540,470.6
		z"/>
	<path fill="#D4674A" d="M340.1,470.6c0,21.5-0.1,43,0.1,64.5c0,3.6-0.5,5.1-4.7,5.1c-43.6-0.2-87.3-0.1-130.9,0
		c-3.4,0-4.5-0.8-4.5-4.4c0.1-43.8,0.1-87.6,0-131.4c0-3.6,1.1-4.3,4.5-4.3c43.6,0.1,87.3,0.1,130.9,0c3.7,0,4.8,0.8,4.7,4.6
		C340,426.6,340.1,448.6,340.1,470.6z"/>
	<path fill="#9C3A3D" d="M70,540.1c-21.8,0-43.6-0.1-65.4,0.1c-3.9,0-4.6-1.1-4.6-4.7c0.1-43.6,0.1-87.2,0-130.9
		c0-3.8,1.1-4.6,4.7-4.6c43.6,0.1,87.2,0.1,130.9,0c3.8,0,4.6,1.1,4.6,4.7c-0.1,43.6-0.1,87.2,0,130.9c0,3.8-1.1,4.6-4.7,4.6
		C113.7,540,91.8,540.1,70,540.1z"/>
	<path fill="#F0C46C" d="M740,270.1c0,21.7-0.1,43.3,0.1,65c0,3.7-0.7,5.1-4.8,5.1c-43.5-0.2-87-0.2-130.4,0c-4.2,0-4.9-1.4-4.9-5.1
		c0.1-43.3,0.1-86.6,0-129.9c0-4.3,1.4-5.1,5.4-5.1c43.1,0.1,86.3,0.2,129.4,0c4.6,0,5.4,1.5,5.4,5.6
		C739.9,227.1,740,248.6,740,270.1z"/>
	<path fill="#D49261" d="M470.5,200.1c21.5,0,43,0.1,64.5-0.1c3.7,0,5.1,0.7,5.1,4.8c-0.2,43.5-0.2,87,0,130.5
		c0,4.2-1.4,4.8-5.1,4.8c-43.3-0.1-86.7-0.1-130,0c-4.4,0-5.1-1.4-5.1-5.4c0.1-43.2,0.2-86.3,0-129.5c0-4.7,1.5-5.4,5.6-5.3
		C427.2,200.2,448.9,200.1,470.5,200.1z"/>
	<path fill="#B86A56" d="M340.1,270.1c0,21.7-0.1,43.3,0.1,65c0,3.6-0.5,5.1-4.7,5.1c-43.6-0.2-87.3-0.1-130.9,0
		c-3.4,0-4.5-0.8-4.5-4.4c0.1-43.8,0.1-87.6,0-131.4c0-3.6,1.1-4.4,4.5-4.3c43.6,0.1,87.3,0.1,130.9,0c3.7,0,4.8,0.8,4.7,4.6
		C340,226.5,340.1,248.3,340.1,270.1z"/>
	<path fill="#9C4A4D" d="M70.3,200.1c21.8,0,43.7,0.1,65.5-0.1c3.5,0,4.4,0.9,4.4,4.4c-0.1,43.8-0.1,87.6,0,131.5
		c0,3.7-1.2,4.3-4.5,4.3c-43.7-0.1-87.3-0.1-131,0c-3.7,0-4.7-0.9-4.7-4.7c0.1-43.7,0.2-87.3,0-131c0-4,1.3-4.6,4.8-4.5
		C26.6,200.2,48.5,200.1,70.3,200.1z"/>
	<path fill="#9C865B" d="M740,70.1c0,21.8-0.1,43.6,0.1,65.5c0,3.8-1.1,4.7-4.7,4.6c-43.6-0.1-87.3-0.1-130.9,0
		c-3.4,0-4.5-0.7-4.5-4.3c0.1-43.8,0.1-87.6,0-131.4c0-3.6,1-4.4,4.5-4.4c43.6,0.1,87.3,0.1,130.9,0c4.2,0,4.8,1.5,4.8,5.1
		C739.9,26.8,740,48.4,740,70.1z"/>
	<path fill="#9C785B" d="M469.5,140.1c-21.5,0-43-0.1-64.5,0.1c-3.6,0-5.1-0.5-5.1-4.8c0.2-43.6,0.1-87.3,0-130.9
		c0-3.4,0.8-4.5,4.4-4.5c43.8,0.1,87.6,0.1,131.4,0c3.6,0,4.3,1.1,4.3,4.5c-0.1,43.6-0.1,87.3,0,130.9c0,3.7-0.8,4.8-4.6,4.7
		C513.5,140,491.5,140.1,469.5,140.1z"/>
	<path fill="#9C695B" d="M269.9,0.1c21.7,0,43.3,0.2,65-0.1c4.6-0.1,5.3,1.4,5.3,5.6c-0.2,43.1-0.2,86.3,0,129.4
		c0,4.1-1,5.2-5.2,5.2c-43.3-0.2-86.6-0.2-129.9,0c-4.3,0-5.1-1.3-5.1-5.3c0.1-43.3,0.1-86.6,0-129.9c0-3.9,0.9-5,4.9-5
		C226.5,0.2,248.2,0.1,269.9,0.1z"/>
	<path fill="#9C5B5D" d="M69.8,140.1c-21.7,0-43.3-0.1-65,0.1c-4.1,0-4.9-1.2-4.9-5c0.1-43.5,0.1-87,0-130.4C0,1.1,0.8,0,4.6,0
		c43.6,0.2,87.3,0.2,130.9,0c3.9,0,4.6,1.1,4.6,4.7c-0.1,43.5-0.1,87,0,130.4c0,3.8-0.8,5-4.9,5C113.5,140,91.7,140.1,69.8,140.1z"
		/>
</g>
</svg>
