<?xml version="1.0" encoding="utf-8"?>
<!-- Generator: Adobe Illustrator 18.0.0, SVG Export Plug-In . SVG Version: 6.00 Build 0)  -->
<!DOCTYPE svg PUBLIC "-//W3C//DTD SVG 1.1//EN" "http://www.w3.org/Graphics/SVG/1.1/DTD/svg11.dtd">
<svg version="1.1" id="レイヤー_1" xmlns="http://www.w3.org/2000/svg" xmlns:xlink="http://www.w3.org/1999/xlink" x="0px"
	 y="0px" width="416.3px" height="416.1px" viewBox="0 0 416.3 416.1" enable-background="new 0 0 416.3 416.1"
	 xml:space="preserve">
<g>
	<path fill="#918484" d="M173.9,354.8c-0.7-0.4-1.6-0.2-2.3-0.2c-11.1,0-59,3-70.1,0.5c-3.1-0.7-5.9-2-8.8-3.2
		c-3-1.2-5.9-2.9-8.7-4.6c-2.7-1.7-5.3-3.6-7.7-5.7c-11.9-10.4-20.8-23-26.1-37.9c-2.7-7.6-4.2-15.4-4.9-23.4
		c-0.5-6.1-0.5-12.2,0.2-18.2c1.5-14.3,6.4-27.3,15-38.9c11.9-15.9,27.7-26.3,46.3-32.6c5.1-1.7,10.2-3.1,15.5-4.3
		c0.4-0.1,0.8-0.1,1.2-0.6c-1-2.7-2.1-5.6-3.1-8.4c-4.3-11.5-8.7-23-13-34.6c-1-2.7-1-2.7-3.8-2.7c-17.8,0-35.7,0-53.5,0
		c-2.6,0-2.3,0.5-3.3-2.3c-1.9-5.5-4-11-5.9-16.5c-0.9-2.6-0.9-2.6,1.8-2.6c10.6,0,21.1,0,31.7,0c10.7,0,21.4,0,32.2,0
		c2.2,0,2.3,0,3.1,2.1c9.8,25.6,19.6,51.2,29.4,76.8c0.4,1.1,1.9,1.7,1.9,0.9c0-27.7,0-55.4,0-83c0-5.5,0.1-11-0.3-16.5
		c-0.4-4.8-1.1-9.5-3-14c-2-4.9-5.2-8.8-10.6-10.3c-3.3-0.9-6.6-0.7-10,0.1c-6,1.3-11.7,3.7-17.3,6.2c-1.8,0.8-5.9,0.8-5.9,0.1
		c0-2.6,0.1-5.3,0-7.9c-0.1-1.6,0.4-2.4,1.9-3c10.3-4.4,20.3-9.4,29.9-15.3c12.8-7.8,24.5-16.8,34.8-27.7c0.4-0.4,0.7-1.1,1.7-1.2
		c0,26.8,0,53.6,0,80.5c1,0,1.4-0.6,1.8-1c5.6-4.9,12.2-7.9,19.4-9.4c2-0.4,2.1-0.4,2.4-2.5c1.5-9.4,3.8-18.6,7.6-27.4
		c8.4-19.4,21.4-34.8,39.9-45.2c8.2-4.7,17.1-7.4,26.6-8.4c14.7-1.5,29.2,0,42.8,5.9c24.1,10.5,41,27.9,48.8,53.5
		c2.4,7.9,3,16.1,3,24.4c-0.1,16.4-3.7,31.8-11.8,46.2c-6.9,12.3-16.5,22.2-27.7,30.5c-3.5,2.6-7.2,5-11,7.4
		c0.5,0.9,1.4,1.1,2.1,1.5c10.3,5.1,20.1,10.9,29.1,18c12.3,9.7,22.5,21.1,29.2,35.4c4.3,9,6.9,18.5,7.7,28.5
		c2.5,29.3-5.3,55.9-22.2,79.8c-11.8,16.8-26.4,30.8-43.6,42.1c-14.3,9.5-29.9,15.9-46.8,19c-9.3,1.7-18.7,2.4-28.2,1.9
		c-11.2-0.5-22.1-2.5-32.3-7.1c-7.3-3.3-14-7.3-19.5-13.3c-3.7-4-6.4-8.6-7.3-14.1c-0.9-5.2-0.5-10.3,1.3-15.3
		C173.6,356,174,355.5,173.9,354.8z"/>
	<path fill="#FFFFFF" d="M162,258.3c0-17,0-30.9,0-44.8c0-0.6,0-1.1,0-1.7c-0.1-1.1,0.3-1.7,1.5-1.6c0.6,0.1,1.3,0,1.9,0
		c21.9,0,43.8,0.1,65.7-0.1c4.6,0,9.2-0.3,13.8,0c14.7,0.8,29.1,3,42.9,8.1c9.8,3.6,18.8,8.5,26.6,15.4
		c11.2,9.9,18.1,22.4,21.7,36.8c1.8,7,2.6,14.1,3.1,21.3c0.6,10.1-0.2,20-2.8,29.7c-3.8,14.2-11.3,26.2-21.8,36.3
		c-8,7.7-17.1,13.4-27.8,16.3c-14.7,4.1-28.9,3-42.7-3.5c-7.9-3.7-15.1-8.7-22.1-13.9c-3.5-2.6-7.2-5-10.9-7.4c-1.9-1.3-4-2.3-6.2-3
		c-0.8-0.3-12.1-4.5-16.4-5.7c-2.5-0.7-4.9-1.6-7.2-2.6c-8.2-3.5-13.4-9.6-15.8-18.2c-1.6-5.8-2.6-11.7-3-17.7
		C161.5,286.6,162.4,270.9,162,258.3z"/>
	<path fill="#FFFFFF" d="M223.3,199.6c-3.6,0.3-7.2,0.4-10.8,0.4c-12.8,0-25.6,0-38.4,0c-0.9,0-1.7,0-2.8,0c0.4-1.2,1.3-1.6,2-2.1
		c5.8-4.4,11.7-8.7,17.4-13.1c11-8.4,21.7-17.2,31.1-27.4c5.3-5.8,10.1-11.9,13.4-19.2c3.3-7.2,3.7-14.5,0.7-21.9
		c-2.2-5.5-6.1-9.7-10.9-13.1c-7.1-5.1-15.1-7.6-23.7-8.3c-0.6,0-1.1-0.1-1.7-0.1c-1.3-0.1-2.5-0.3-3.7-0.4
		c-0.1-0.2-0.2-0.4-0.2-0.5c3.1-10,7.6-19.3,14.5-27.3c8.6-9.8,19.3-15.8,32.1-18.3c14-2.8,27.8-2.4,41.5,1.5
		c18.9,5.4,30.3,18.1,35.5,36.8c3,11,3.7,22.2,2.8,33.5c-1.4,17.1-8.2,31.9-19.5,44.6c-7.7,8.6-16.5,15.8-26.6,21.3
		C267.1,191,227.4,199.3,223.3,199.6z"/>
	<path fill="#FFFFFF" d="M140.8,253.7c0,11.8,0,23.7,0,35.5c0,6.8-0.2,13.6-1.3,20.3c-0.8,5-2,9.9-4.3,14.4
		c-0.4,0.8-0.7,1.6-1.5,2.1c-3.6,2.4-7.1,5.2-10.9,7.3c-7.5,4.1-15.4,6.2-24,5.4c-8.5-0.8-15.9-4.1-22.2-9.9
		c-9.8-9-15.7-20.1-17.3-33.3c-2-16.5,0.8-32,9.9-46.1c6.4-10,15-17.8,25-24.1c11.5-7.3,24.2-11.5,37.5-13.8
		c2.6-0.4,5.2-0.8,7.8-1.1c0.9-0.1,1.2,0.2,1.2,1c0,0.6,0,1.3,0,1.9C140.8,226.8,140.8,240.3,140.8,253.7z"/>
	<path fill="#FFFFFF" d="M162.2,196c-0.4-0.7-0.2-1.5-0.2-2.3c0-25,0-50.1,0-75.1c0-1.6,0.5-2.8,1.6-4c4.1-4.3,9.1-6.8,14.8-8
		c7.4-1.6,14.9-1.5,22.3,0.3c9.7,2.3,16.1,8.7,17.7,19.4c1.3,8.5-1.1,16-5.4,23.1c-4.4,7.3-10,13.5-16,19.4
		c-10.3,10-21.7,18.7-33.4,26.9C163.2,195.8,162.9,196.3,162.2,196z"/>
</g>
</svg>
