<?xml version="1.0" encoding="utf-8"?>
<!-- Generator: Adobe Illustrator 18.0.0, SVG Export Plug-In . SVG Version: 6.00 Build 0)  -->
<!DOCTYPE svg PUBLIC "-//W3C//DTD SVG 1.1//EN" "http://www.w3.org/Graphics/SVG/1.1/DTD/svg11.dtd">
<svg version="1.1" id="レイヤー_1" xmlns="http://www.w3.org/2000/svg" xmlns:xlink="http://www.w3.org/1999/xlink" x="0px"
	 y="0px" width="396.1px" height="396.9px" viewBox="0 0 396.1 396.9" enable-background="new 0 0 396.1 396.9"
	 xml:space="preserve">
<g>
	<path fill="#7A8284" d="M197.5,25.3c56.4,0,112.9,0,169.2-0.1c3.6,0,4.4,1,4.3,4.5c-0.3,7.8-0.3,15.6,0,23.3c0.1,3.5-1,4-4.2,4
		c-39.8-0.1-79.7-0.1-119.6-0.1c-5.1,0-4.4-0.6-4.4,4.5c0,110.7,0,221.5,0.1,332.2c0,3.3-0.7,4.2-4.1,4.2c-27.6-0.2-55.3-0.2-82.9,0
		c-3,0-3.6-0.8-3.6-3.8c0.1-111,0.1-222,0.1-333c0-5,0.7-4.3-4.3-4.3c-39.9,0-80-0.1-119.9,0.1c-3.2,0-3.9-0.9-3.8-4
		c0.2-8.1,0.2-16.3,0-24.4c-0.1-2.8,0.7-3.5,3.5-3.5C84.4,25.3,140.9,25.3,197.5,25.3z"/>
</g>
</svg>
